# xmcd CD database file
#
# Track frame offsets:
#	150
#	40186
#	77449
#	90556
#	128307
#	142189
#	176529
#	187191
#	220056
#	232428
#	273067
#
# Disc length: 4177 seconds
#
# Revision: 0
# Processed by: cddbd v1.5.2PL0 Copyright (c) Steve Scherf et al.
# Submitted via: CDex 1.51
#
DISCID=94104f0b
DTITLE=Rocco Zifarelli - Lyndor
DYEAR=1999
DGENRE=Jazz
TTITLE0=Rocco Zifarelli/Pacman
TTITLE1=Rocco Zifarelli/Difficult collaboration
TTITLE2=Rocco Zifarelli/Preloud
TTITLE3=Rocco Zifarelli/Sierra Nevada
TTITLE4=Rocco Zifarelli/Sguardi
TTITLE5=Rocco Zifarelli/Havona
TTITLE6=Rocco Zifarelli/Introduction
TTITLE7=Rocco Zifarelli/Sweet flame
TTITLE8=Rocco Zifarelli/Interloud
TTITLE9=Rocco Zifarelli/Lyndon
TTITLE10=Rocco Zifarelli/Peregrine flight
EXTD=YEAR: 1999
EXTT0=
EXTT1=
EXTT2=
EXTT3=
EXTT4=
EXTT5=
EXTT6=
EXTT7=
EXTT8=
EXTT9=
EXTT10=
PLAYORDER=
